<svg xmlns="http://www.w3.org/2000/svg" viewBox="0 0 1675.54 384"><defs><style>.cls-1{fill:#fff;}.cls-2{fill:#0d9136;}.cls-3{fill:#fdfdfe;}</style></defs><title>Asset 1</title><g id="Layer_2" data-name="Layer 2"><g id="Layer_1-2" data-name="Layer 1"><path class="cls-1" d="M147,384c-.8-2.4-3-1.59-4.6-1.83C84.5,373.4,41.76,333.09,30,276c-12.19-59,21-121.95,76.75-145.67,25.7-10.93,52.46-14.8,79.56-7.87,34.43,8.8,56.39,30.85,63.14,66.42,4.73,24.93-8.17,51.16-29.83,61.8-6,2.94-12.24,4.32-18.84,2.41-5.3-1.53-6.07-4.33-2.16-8.1,3.47-3.35,7.63-5.9,10.85-9.57,19.53-22.3,11.92-56.07-15.75-69.58s-61-3.24-78.64,24.36c-19,29.79-14.84,69.19,10.88,96.73,21,22.51,47.35,31.76,77.95,29.12a2.5,2.5,0,0,0,1.44-.71,224.84,224.84,0,0,1-23.46-2.53c-33.9-5.88-60.76-31.3-67.91-64.43-5.52-25.57,5.6-52,27.05-64.15,6.25-3.52,12.91-5.35,20.12-3.84,2.27.48,4.85,1.12,5.46,3.75.56,2.42-1.51,3.89-3.09,5.3-3.59,3.21-7.64,5.87-10.77,9.64-20,24.16-9.31,59.18,21.34,71.22,25.16,9.9,55.85-1.08,72.38-24.58,21.88-31.12,14.78-76.18-12.18-101.29,1.86-1.22,3,.14,4.22,1.09,41.84,33.73,60.54,77.34,50.32,130.25-10.39,53.76-44,88.12-96.8,103.33-6.11,1.76-12.38,2.55-18.63,3.56-1.17.19-2.79-.46-3.37,1.34h-2a35.64,35.64,0,0,0-18,0Z"/><path class="cls-2" d="M56,0c6.29,3.07,13.38,3.23,19.9,5.7C110,18.64,131.34,42.55,139.17,78.34a58.78,58.78,0,0,1,1.73,13.14c-2,.61-2.58-.89-3.38-1.8A269.24,269.24,0,0,0,57.11,27.27a8.51,8.51,0,0,0-1.93-.47c-.44-.82-1.37-1.27-1.89-.64-.8,1,.62,1,1,1.48a291.57,291.57,0,0,1,67.54,61.51c5.88,7.38,6,7-2.9,9.61C70.8,112.65,36.48,142.63,16.09,188.33A143.71,143.71,0,0,0,3.75,255.76c.21,3.65,0,7.32,0,11.66C1,264.83,2.44,261,0,259V231c1.75-1.41,1.76-3.54,1.87-5.43.37-6.18,1.71-12.15,3-18.18,7.7-35.93,25.52-65.92,52.65-90.55A177.55,177.55,0,0,1,83.91,97.31c-.32-.43-.39-.63-.52-.68C44.79,80.53,23.81,51.7,20.81,9.92,20.32,3.17,20.6,3,27.19,2.05c2-.29,4.27-.24,5.81-2Z"/><path class="cls-2" d="M150,384a35.64,35.64,0,0,1,18,0Z"/><path class="cls-2" d="M478.1,235.72c3.26,2.1,6.12,3.73,8.76,5.67,23.7,17.45,16.67,55.26-1.37,69.29-12,9.35-26,13.32-40.63,15-19.44,2.25-38.91,2.47-58-2.65-20.58-5.52-28.89-16.45-28.93-37.85q-.11-53.46,0-106.93c0-11.8,5.13-19.83,16.64-22.39,28.88-6.42,58.15-8.37,86.88.2s41.46,40,28.45,67A29.85,29.85,0,0,1,478.1,235.72Zm-49,50.17c1.5,0,3,.1,4.5,0,9.06-.71,13.93-4.9,14.34-12.25.46-8.35-4-13.86-12.77-15.75a33.21,33.21,0,0,0-12.9-.48c-7.95,1.39-6.88-.35-7,8.14,0,2.16,0,4.33,0,6.49C415.29,285.83,415.29,285.83,429.1,285.89ZM415.3,212.5c0,4.48.1,9-.05,13.44-.08,2.46.77,2.73,2.89,2.08,4.12-1.24,8.32-2.22,12.47-3.37,8.37-2.32,11.94-7.59,11.06-16.24-.86-8.48-5.63-12.91-14.46-13.33-2-.1-4,.14-6,.12-4.71,0-6.78,1.84-6.05,6.85C415.69,205.47,415.29,209,415.3,212.5Z"/><path class="cls-1" d="M1050.07,235.71c3.23,2.08,6.1,3.71,8.74,5.64,23.78,17.43,16.8,55.54-1.66,69.61-12,9.11-25.75,13.05-40.24,14.73-19.44,2.25-38.92,2.48-58-2.64-20.6-5.51-28.93-16.42-29-37.81q-.1-53.48,0-107c0-11.82,5.1-19.83,16.63-22.4,28.9-6.42,58.17-8.38,86.91.2s41.45,40,28.42,67A29.17,29.17,0,0,1,1050.07,235.71ZM987.3,271.29c0,3.16.18,6.34,0,9.49-.19,2.55.91,3.64,3.2,4.06,5.76,1.05,11.56,1.72,17.38.73,8-1.36,11.84-5.31,12.12-12.21.3-7.64-3.66-13.15-11.08-15.15a38.16,38.16,0,0,0-13.38-1c-8.19.76-8.19.78-8.19,9.1Zm0-42.62c6.06-1.63,11.66-3,17.19-4.65,6.24-1.83,9.13-6.23,9.25-13.64s-3.11-12.45-9.19-14.35c-5.06-1.59-10.16-1.08-15.28-.2-1.4.25-2,.81-2,2.24C987.32,208.15,987.31,218.23,987.31,228.67Z"/><path class="cls-1" d="M1224.7,242.35q0-32,0-64c0-12.74,5.16-20.43,17.61-23.13,26.82-5.82,54-7.32,80.5.9,43.73,13.54,58.65,67.91,28.52,102.57-1.85,2.13-2,3.62-.89,6,5.43,12.31,10.46,24.8,16.12,37,2.33,5,1.33,8.9-1.7,12.88-5,6.59-12.11,9.13-19.92,10a60.88,60.88,0,0,1-20.36-1,24.2,24.2,0,0,1-16.86-12.86,121.18,121.18,0,0,1-10.17-27.51c-.86-3.38-2.22-4.42-5.69-4.42-7.35,0-7.35-.24-7.36,7.1,0,7.16.08,14.33,0,21.49-.12,8.33-2.8,12.52-10.59,14.91a64.48,64.48,0,0,1-38.83-.06c-7.87-2.45-10.36-6.5-10.36-14.95Q1224.68,274.84,1224.7,242.35Zm59.47-23.77q0,10.46,0,20.92c0,1.64-.28,3.15,2.27,3.54a19.19,19.19,0,0,0,21.09-12.25,37.52,37.52,0,0,0,1.93-13.73c-.28-13.73-8-21.38-21.78-22-3-.14-3.63.87-3.56,3.61C1284.28,205.29,1284.17,211.93,1284.17,218.58Z"/><path class="cls-1" d="M1382.7,242.44q0-32,0-64c0-12.79,5.11-20.5,17.53-23.2,26.81-5.84,53.93-7.34,80.5.86,43.69,13.48,58.73,68,28.67,102.53-1.82,2.08-2.12,3.54-1,6,5.53,12.45,10.68,25.07,16.34,37.45,2.12,4.63,1.2,8.29-1.52,12-5.1,7-12.5,9.67-20.68,10.56a60.91,60.91,0,0,1-19.87-1.07,24.19,24.19,0,0,1-16.9-12.81,121.56,121.56,0,0,1-10.19-27.49c-.84-3.28-2-5-5.63-4.44a7.5,7.5,0,0,1-3.46-.26c-3.76-1.27-4.07.71-4,3.71.13,8.32.12,16.66,0,25-.1,8.5-2.94,12.78-11,15.16a66.16,66.16,0,0,1-37.92,0c-8.16-2.39-10.89-6.6-10.89-15.11Q1382.67,274.92,1382.7,242.44Zm59.47-23.65v20.43c0,.17,0,.33,0,.5-.09,1.79.08,3,2.48,3.33,10,1.26,18.52-4.18,21.38-13.89a38.85,38.85,0,0,0,1.4-12.81c-.6-13.4-8.54-20.94-22-21.32-2.68-.07-3.41.74-3.35,3.33C1442.27,205.17,1442.17,212,1442.17,218.79Z"/><path class="cls-2" d="M688.78,219.37c0,13.66,0,27.33,0,41,0,4.16-.08,8.32.82,12.44,2.13,9.79,6.61,13.46,16.29,13.16,8.82-.28,13.59-4.78,15.06-14.23,1.55-9.94.82-20,.82-29.94,0-23.16-.2-46.32-.31-69.48-.05-9.73,3.17-14.06,12.6-16.35a61.37,61.37,0,0,1,29.69.21c8.74,2.2,12.05,6.76,12.06,15.84q0,40.74,0,81.49c0,15.88-2.53,31.18-11.48,44.8-10.45,15.91-25.69,24.27-44.05,27.3a109,109,0,0,1-46.58-2c-25.66-6.92-41.21-25.74-43.69-52.81-2.19-23.94-.59-48-1.06-71.94-.19-9.33.13-18.67-.14-28-.19-6.83,3-11.4,9.07-13.36a65.29,65.29,0,0,1,42.15.29c6,2.07,8.8,6.66,8.77,13.11C688.73,187,688.78,203.21,688.78,219.37Z"/><path class="cls-1" d="M1089.7,235.61q0-30.75,0-61.48c0-11.42,7-19,18.47-19.06,28.15-.19,56.31,0,84.47-.13a6,6,0,0,1,5.31,2.92c6.18,8.51,6.72,27.62.71,36.26-4.48,6.46-11.62,7.47-18.65,7.74-9.81.38-19.66.36-29.48.07-3.93-.12-4.81,1.17-4.54,4.76a88.25,88.25,0,0,1,0,12.49c-.2,3.1.76,3.93,3.86,3.89,14.16-.17,28.32-.08,42.48-.07,7.94,0,11.46,3.05,12.75,10.95.24,1.48.48,3,.59,4.46,1.09,14.24-4.62,21.69-18.75,23.81-11.91,1.8-24,.62-35.93.72-3.66,0-5.47.59-5,4.79a62.89,62.89,0,0,1,0,11.48c-.24,3.16.85,3.89,3.89,3.86,16.33-.15,32.66.1,49-.18,4.32-.08,6.43,1.87,8,5.27,7.68,16.62-1.35,34.39-19.44,35.78-25,1.93-50.27,3-75.23-1-15.91-2.54-22.46-11.23-22.49-27.33Q1089.65,265.61,1089.7,235.61Z"/><path class="cls-2" d="M856.1,155c13.66,0,27.33.17,41-.11,3.94-.07,6.32,1.32,7.9,4.61,5.31,11,5.47,22.31.39,33.24-3.67,7.88-11.75,8.77-19.28,9.1-10,.44-20,.31-30,.11-3.34-.06-4.31,1-4.1,4.2a92.81,92.81,0,0,1,0,12.48c-.25,3.45.74,4.52,4.33,4.46,14-.22,28-.1,42-.09,8,0,11.49,3,12.77,10.92.24,1.47.48,3,.6,4.45,1.13,14.21-4.62,21.72-18.71,23.85-11.91,1.8-24,.71-35.92.68-4.31,0-5.45,1.26-5,5.31a62.91,62.91,0,0,1,0,11c-.24,3.14.83,3.91,3.89,3.88,16.16-.15,32.32.13,48.47-.19,5-.1,7.44,2.06,8.82,6.22a33.4,33.4,0,0,1-1.35,24.81c-1.77,4-5.21,6.38-9.2,8A37.34,37.34,0,0,1,889,324.73c-21.8.18-43.62,1.29-65.4-.72A46.25,46.25,0,0,1,812,321.28c-10.35-3.78-16.13-11.08-16.17-22.17q-.19-63.71,0-127.43c0-9.58,8.1-16.52,18.84-16.64C828.45,154.89,842.28,155,856.1,155Z"/><path class="cls-1" d="M1605.56,240.24c5.07-26,10.19-51.74,15-77.54.75-4,2.74-6.42,6.08-7.79,13-5.34,26.31-5.72,39.39-.62,7.45,2.91,9.76,9.47,9.47,17.11a101.86,101.86,0,0,1-5.4,28.83,238.16,238.16,0,0,1-30.78,60.15,10.34,10.34,0,0,1-2.14,2.74c-7.7,5.21-8,12.85-7.51,21.06.43,8,0,16,.13,24,.1,6.85-2.91,11.69-9.3,13.81a62,62,0,0,1-40.19,0c-6.79-2.3-9.23-6.5-9.24-13.77,0-11.66-.06-23.32,0-35a12.31,12.31,0,0,0-1.95-7,449,449,0,0,1-43.7-92.12c-2.33-6.75-1.11-11.2,4.5-15.79,8.92-7.31,19.42-8,30.27-7,14.22,1.24,22.46,9.59,26.86,22.53,7.06,20.8,12.22,42.11,16.85,63.56C1604.14,238.29,1603.84,239.42,1605.56,240.24Z"/><path class="cls-2" d="M517.88,234.51q0-32,0-63.95c0-7.67,2.39-11.52,9.69-13.82a63.4,63.4,0,0,1,38.8,0c7.34,2.31,9.73,6.15,9.73,13.78,0,35.8,0,71.61-.24,107.42,0,4.14.93,5.32,5.13,5.16,9.31-.35,18.66.06,28-.2,3.61-.1,5.51,1.51,7,4.35,7.93,14.8-.62,34.26-17.2,36.46-20,2.64-40.24,2.92-60.14-1.07-14.41-2.89-20.81-11.29-21-26.19-.22-20.65-.05-41.3-.05-61.95Z"/><path class="cls-3" d="M54.32,27.64c-.41-.48-1.83-.51-1-1.48.52-.63,1.45-.18,1.89.64Z"/></g></g></svg>