<svg xmlns="http://www.w3.org/2000/svg" viewBox="0 0 292 384"><defs><style>.cls-1{fill:#12234d;}.cls-2{fill:#109339;}.cls-3{fill:#fcfdfd;}</style></defs><title>Asset 3</title><g id="Layer_2" data-name="Layer 2"><g id="Layer_1-2" data-name="Layer 1"><path class="cls-1" d="M147,384c-.79-2.4-3-1.6-4.59-1.83C84.17,373.46,40.26,332.36,29.79,274.53c-12.42-68.66,29.53-130.73,91.4-149.41,25.61-7.72,51.44-8.74,76.92,1,32.65,12.5,53.82,43.78,51.66,77.64-1.33,20.82-11.21,37-30.13,46.87a26.69,26.69,0,0,1-17.41,2.88c-2.38-.43-5.24-.88-5.92-3.81-.63-2.7,1.61-4.25,3.35-5.71,3.18-2.68,6.6-5.06,9.4-8.18,18-20.11,13.94-50.72-8.89-66.18-25.71-17.42-61.06-11-81,14.81-23.21,30-21,71.83,6.06,101.67,20.55,22.65,46.62,32.24,77.08,30a17.62,17.62,0,0,0,2.69-.92,233.52,233.52,0,0,1-23.26-2.45c-33.87-5.92-60.72-31.42-67.81-64.55-5.47-25.55,5.7-52,27.19-64.06,6.54-3.67,13.53-5.69,21.06-3.43,5.34,1.6,6,4.23,2,8.07-2.52,2.4-5.52,4.3-8,6.73-24.07,23.3-14.89,62,17.63,74.55,26,10,55.62-.2,72.75-24.5,21.06-29.87,15.4-72.91-9.72-98.8-1.25-1.29-2.86-2.29-3.55-4.18,1.88-.68,2.72,1,3.76,1.76,30.9,23.38,49,54.18,53.81,92.74.13,1-.43,2.46,1.23,2.87v2a32.36,32.36,0,0,0,0,17v5c-1.46.16-1.17,1.35-1.29,2.26-1.25,9.25-2.92,18.44-6.2,27.19q-28.27,75.42-107.81,88.71c-1.92.31-4.39-.55-5.7,1.84h-4a19.22,19.22,0,0,0-13,0Z"/><path class="cls-2" d="M54.33,27.65a291.19,291.19,0,0,1,67.52,61.49c5.88,7.38,6.06,7-2.87,9.61-48.34,14-82.71,44.06-103,90A143.47,143.47,0,0,0,3.76,255.68c.17,3,0,6.07,0,9.21C.93,264.42,2.5,261,0,261V229c2.16-.34,1.82-2.2,1.89-3.52.31-6.18,1.7-12.15,3-18.17,7.7-35.91,25.52-65.87,52.64-90.48A177.46,177.46,0,0,1,83.91,97.3c-.33-.43-.4-.62-.53-.68Q25.2,72.35,20.66,9.48c-.4-5.35,1.56-7.24,6.46-7.46,2.09-.09,4.3-.26,5.88-2H56c6.63,3,14,3.31,20.76,5.94C110,18.88,130.94,42.48,139.05,77.3c1.08,4.66,2.11,9.36,1.79,14.25-2.28.43-2.9-1.46-3.92-2.6C114,63.4,87.43,42.48,56.65,27.08a5.4,5.4,0,0,0-1.47-.28c-.74-1.18-2.28-1.32-2.69-.51C52,27.25,53.77,27,54.33,27.65Z"/><path class="cls-2" d="M292,259a32.36,32.36,0,0,1,0-17Z"/><path class="cls-2" d="M154,384a19.22,19.22,0,0,1,13,0Z"/><path class="cls-3" d="M54.33,27.65c-.56-.61-2.33-.4-1.84-1.36.41-.81,1.95-.67,2.69.51Z"/></g></g></svg>